<svg width="114" height="35" viewBox="0 0 114 35" fill="none" xmlns="http://www.w3.org/2000/svg">
<path d="M0.432983 23.6488V21.4721L6.44751 20.3606V23.3709C6.47766 25.0073 6.88465 26.2423 7.6685 27.0759C8.4825 27.8787 9.55275 28.2801 10.8793 28.2801C12.1756 28.2801 13.2007 27.8478 13.9544 26.9833C14.7382 26.1188 15.1301 24.961 15.1301 23.5099V0.816697H21.3708V23.5099C21.3708 26.5356 20.391 29.0982 18.4313 31.1977C16.4717 33.2972 13.9694 34.347 10.9245 34.347C7.75895 34.347 5.21144 33.3744 3.28197 31.4293C1.38265 29.4533 0.432983 26.8598 0.432983 23.6488Z" fill="black"/>
<path d="M22.8048 27.4464C22.8048 25.5013 23.4228 23.9421 24.6589 22.7689C25.895 21.5956 27.4928 20.8546 29.4524 20.5459L34.9243 19.7122C36.0398 19.5579 36.5975 19.0175 36.5975 18.0913C36.5975 17.2268 36.2659 16.5167 35.6026 15.9609C34.9695 15.4052 34.05 15.1273 32.8441 15.1273C31.5779 15.1273 30.5679 15.4823 29.8142 16.1925C29.0907 16.9026 28.6837 17.7825 28.5932 18.8323L23.257 17.6745C23.4681 15.6985 24.4177 13.954 26.106 12.4412C27.7943 10.9283 30.0252 10.1718 32.7989 10.1718C36.1151 10.1718 38.5571 10.99 40.1248 12.6264C41.6925 14.2319 42.4764 16.3005 42.4764 18.8323V30.0399C42.4764 31.3984 42.5668 32.6026 42.7477 33.6523H37.2306C37.0799 32.9731 37.0045 32.0622 37.0045 30.9199C35.5875 33.1738 33.4018 34.3007 30.4473 34.3007C28.1561 34.3007 26.302 33.6214 24.885 32.2629C23.4982 30.9044 22.8048 29.2989 22.8048 27.4464ZM31.7135 29.7157C33.1305 29.7157 34.2912 29.3144 35.1956 28.5116C36.1302 27.678 36.5975 26.3195 36.5975 24.4361V23.4172L31.5779 24.2045C29.7388 24.4824 28.8193 25.4395 28.8193 27.0759C28.8193 27.8169 29.0756 28.4499 29.5881 28.9747C30.1006 29.4687 30.8091 29.7157 31.7135 29.7157Z" fill="black"/>
<path d="M66.042 0.122009V29.5305C66.042 31.0434 66.1023 32.4173 66.2229 33.6523H60.4797C60.3289 32.8804 60.2535 32.0005 60.2535 31.0125C59.741 31.9696 58.927 32.7415 57.8116 33.3281C56.7262 33.9148 55.46 34.2081 54.0129 34.2081C50.8474 34.2081 48.2396 33.0811 46.1895 30.8272C44.1696 28.5425 43.1596 25.6711 43.1596 22.2131C43.1596 18.8477 44.1545 16.0227 46.1443 13.7379C48.1642 11.4532 50.7268 10.3108 53.832 10.3108C57.0277 10.3108 59.123 11.2525 60.1179 13.1358V0.122009H66.042ZM49.2194 22.2131C49.2194 24.22 49.7319 25.8101 50.7569 26.9833C51.782 28.1257 53.1085 28.6969 54.7365 28.6969C56.3343 28.6969 57.6457 28.1102 58.6708 26.937C59.6958 25.7637 60.2083 24.1737 60.2083 22.1668C60.2083 20.1908 59.6958 18.647 58.6708 17.5355C57.6457 16.3932 56.3343 15.822 54.7365 15.822C53.1386 15.822 51.8121 16.3932 50.7569 17.5355C49.7319 18.6779 49.2194 20.2371 49.2194 22.2131Z" fill="black"/>
<path d="M74.9182 27.0296C76.0337 28.172 77.3753 28.7432 78.9429 28.7432C80.5106 28.7432 81.8372 28.172 82.9225 27.0296C84.038 25.8872 84.5957 24.2972 84.5957 22.2594C84.5957 20.2217 84.038 18.6316 82.9225 17.4892C81.8372 16.3468 80.5106 15.7757 78.9429 15.7757C77.3753 15.7757 76.0337 16.3468 74.9182 17.4892C73.8329 18.6316 73.2902 20.2217 73.2902 22.2594C73.2902 24.2972 73.8329 25.8872 74.9182 27.0296ZM70.5769 13.599C72.8078 11.3142 75.5965 10.1718 78.9429 10.1718C82.2894 10.1718 85.063 11.3142 87.2638 13.599C89.4947 15.8837 90.6102 18.7705 90.6102 22.2594C90.6102 25.7483 89.4947 28.6351 87.2638 30.9199C85.063 33.2046 82.2894 34.347 78.9429 34.347C75.5965 34.347 72.8078 33.2046 70.5769 30.9199C68.3761 28.6351 67.2757 25.7483 67.2757 22.2594C67.2757 18.7705 68.3761 15.8837 70.5769 13.599Z" fill="black"/>
<path d="M97.7094 27.0296C98.8248 28.172 100.166 28.7432 101.734 28.7432C103.302 28.7432 104.628 28.172 105.714 27.0296C106.829 25.8872 107.387 24.2972 107.387 22.2594C107.387 20.2217 106.829 18.6316 105.714 17.4892C104.628 16.3468 103.302 15.7757 101.734 15.7757C100.166 15.7757 98.8248 16.3468 97.7094 17.4892C96.624 18.6316 96.0814 20.2217 96.0814 22.2594C96.0814 24.2972 96.624 25.8872 97.7094 27.0296ZM93.3681 13.599C95.599 11.3142 98.3877 10.1718 101.734 10.1718C105.081 10.1718 107.854 11.3142 110.055 13.599C112.286 15.8837 113.401 18.7705 113.401 22.2594C113.401 25.7483 112.286 28.6351 110.055 30.9199C107.854 33.2046 105.081 34.347 101.734 34.347C98.3877 34.347 95.599 33.2046 93.3681 30.9199C91.1673 28.6351 90.0668 25.7483 90.0668 22.2594C90.0668 18.7705 91.1673 15.8837 93.3681 13.599Z" fill="black"/>
</svg>
